<?xml version="1.0" encoding="utf-8"?>
<!-- Generator: Adobe Illustrator 16.0.0, SVG Export Plug-In . SVG Version: 6.00 Build 0)  -->
<!DOCTYPE svg PUBLIC "-//W3C//DTD SVG 1.1//EN" "http://www.w3.org/Graphics/SVG/1.1/DTD/svg11.dtd">
<svg version="1.1" id="Calque_1" xmlns="http://www.w3.org/2000/svg" xmlns:xlink="http://www.w3.org/1999/xlink" x="0px" y="0px"
	 width="150px" height="100px" viewBox="0 0 150 100" enable-background="new 0 0 150 100" xml:space="preserve">
<path fill="#CCCCCC" d="M135.233,41.002c-21.121,5.381-39.91,16.839-39.91,16.839c-18.85,10.892-24.351,19.466-24.351,19.466
	s-5.677-16.336-22.707-18.835c-17.03-2.491-27.196,13.501-27.196,13.501l5.828,12.764c0,0,5.977-17.486,22.954-14.692
	C69.151,73.224,67.564,100,67.564,100s12.828-16.974,32.354-28.654c0,0,18.62-11.688,40.756-18.095L135.233,41.002z"/>
<path fill="#EEEEEE" d="M132.504,0c-23.589,2.623-48.481,18.268-48.481,18.268C70.97,25.414,64.724,31.997,64.724,31.997
	s-11.35-11.576-29.802-12.481C17.732,18.671,3.758,34.493,3.758,34.493l15.699,34.312c0,0,9.746-14.209,24.83-13.55
	c20.353,0.896,27.25,17.021,27.25,17.021s8.172-9.176,24.861-18.592c0,0,29.091-16.457,49.844-17.596L132.504,0z"/>
</svg>
