<?xml version="1.0" encoding="utf-8"?>
<!-- Generator: Adobe Illustrator 16.0.0, SVG Export Plug-In . SVG Version: 6.00 Build 0)  -->
<!DOCTYPE svg PUBLIC "-//W3C//DTD SVG 1.1//EN" "http://www.w3.org/Graphics/SVG/1.1/DTD/svg11.dtd">
<svg version="1.1" id="Calque_1" xmlns="http://www.w3.org/2000/svg" xmlns:xlink="http://www.w3.org/1999/xlink" x="0px" y="0px"
	 width="150px" height="100px" viewBox="0 0 150 100" enable-background="new 0 0 150 100" xml:space="preserve">
<rect x="27.186" y="46.449" fill="#BBBBBB" width="32.013" height="7.116"/>
<rect x="66.109" y="46.449" fill="#BBBBBB" width="32.871" height="7.116"/>
<polygon fill="#DDDDDD" points="0,13.988 0,46.473 7.118,46.473 7.118,21.104 34.631,21.104 34.631,13.988 "/>
<polygon fill="#DDDDDD" points="7.116,78.84 7.116,53.557 0,53.557 0,85.955 35.889,85.955 35.889,78.84 "/>
<rect x="7.127" y="46.449" fill="#DDDDDD" width="20.059" height="7.116"/>
<rect x="59.091" y="13.967" fill="#DDDDDD" width="7.115" height="32.473"/>
<polygon fill="#DDDDDD" points="66.207,78.915 66.207,53.559 59.091,53.559 59.091,86.033 86.773,86.033 86.773,78.915 "/>
<g>
	<path fill="#DDDDDD" d="M134.031,77.983c-15.429,0-27.938-12.509-27.938-27.941c0-15.431,12.509-27.939,27.938-27.939
		c5.943,0,11.442,1.869,15.969,5.031v-9.302c-4.813-2.394-10.226-3.772-15.969-3.772c-19.875,0-35.984,16.109-35.984,35.982
		c0,19.875,16.109,35.982,35.984,35.982c5.743,0,11.155-1.378,15.969-3.771v-9.304C145.474,76.111,139.975,77.983,134.031,77.983"/>
</g>
</svg>
