<?xml version="1.0" encoding="utf-8"?>
<!-- Generator: Adobe Illustrator 16.0.0, SVG Export Plug-In . SVG Version: 6.00 Build 0)  -->
<!DOCTYPE svg PUBLIC "-//W3C//DTD SVG 1.1//EN" "http://www.w3.org/Graphics/SVG/1.1/DTD/svg11.dtd">
<svg version="1.1" id="Calque_1" xmlns="http://www.w3.org/2000/svg" xmlns:xlink="http://www.w3.org/1999/xlink" x="0px" y="0px"
	 width="600px" height="338px" viewBox="0 0 600 338" enable-background="new 0 0 600 338" xml:space="preserve">
<g>
	<path fill="#BBBBBB" d="M381.419,133.672c-28.163,7.175-53.217,22.454-53.217,22.454c-25.134,14.522-32.47,25.954-32.47,25.954
		s-7.568-21.781-30.276-25.113c-22.708-3.323-36.264,18.002-36.264,18.002l7.772,17.018c0,0,7.969-23.315,30.607-19.59
		c25.734,4.24,23.619,39.943,23.619,39.943s17.103-22.633,43.139-38.207c0,0,24.828-15.586,54.344-24.127L381.419,133.672z"/>
	<path fill="#DDDDDD" d="M377.779,79c-31.453,3.497-64.645,24.358-64.645,24.358c-17.406,9.529-25.733,18.308-25.733,18.308
		s-15.133-15.437-39.738-16.644c-22.92-1.126-41.553,19.97-41.553,19.97l20.932,45.752c0,0,12.996-18.946,33.109-18.067
		c27.138,1.193,36.335,22.696,36.335,22.696s10.896-12.235,33.15-24.79c0,0,38.789-21.945,66.461-23.463L377.779,79z"/>
	<path fill="#DDDDDD" d="M193.35,256.971c-4.375,1.107-11.768,2.023-16.671,2.023c-8.504,0-14.125-1.697-18.966-5.682
		c-4.904-4.056-7.713-9.939-7.713-16.205c0-14.254,10.784-23.793,26.869-23.793c5.432,0,10.857,0.985,15.695,2.944v11.164
		c-4.773-2.604-9.093-3.786-13.735-3.786c-7.712,0-13.208,5.288-13.208,12.684c0,7.115,4.835,11.633,12.423,11.633
		c0.785,0,1.635,0,2.613-0.068l0.782-0.059V242.6h-5.544v-9.485h17.452v23.856H193.35z"/>
	<path fill="#DDDDDD" d="M247.025,236.842c0,8.369-2.422,14.115-7.524,17.779c-4.317,3.068-9.088,4.379-16.351,4.379
		c-10.655,0-18.237-3.6-21.767-10.195c-1.567-2.881-2.163-5.758-2.163-10.252v-24.711h15.632v21.631c0,4.646,0.525,6.93,1.834,8.693
		c1.366,1.693,3.654,2.748,6.079,2.748c6.076,0,8.63-3.402,8.63-11.377v-21.701h15.632v23.006H247.025L247.025,236.842z"/>
	<polygon fill="#DDDDDD" points="253.096,213.836 286.574,213.836 286.574,223.248 268.524,223.248 268.524,231.223 
		285.005,231.223 285.005,240.496 268.524,240.496 268.524,248.801 286.772,248.801 286.772,258.41 253.096,258.41 	"/>
	<polygon fill="#DDDDDD" points="307.281,213.799 295.206,258.309 288.597,258.309 300.602,213.799 	"/>
	<polygon fill="#DDDDDD" points="309.107,213.836 322.511,213.836 345.197,236.777 344.221,213.836 360.048,213.836 360.048,258.41 
		346.579,258.41 323.891,235.531 324.87,258.41 309.107,258.41 	"/>
	<path fill="#DDDDDD" d="M409.535,256.971c-4.381,1.107-11.764,2.023-16.68,2.023c-8.496,0-14.119-1.697-18.959-5.682
		c-4.897-4.056-7.713-9.939-7.713-16.205c0-14.254,10.787-23.793,26.877-23.793c5.424,0,10.853,0.985,15.693,2.944v11.164
		c-4.775-2.604-9.09-3.786-13.734-3.786c-7.711,0-13.207,5.288-13.207,12.684c0,7.115,4.836,11.633,12.428,11.633
		c0.779,0,1.63,0,2.615-0.068l0.785-0.064V242.6h-5.568v-9.485h17.463V256.971z"/>
	<polygon fill="#DDDDDD" points="416.852,213.836 432.475,213.836 432.475,247.229 450,247.229 450,258.41 416.852,258.41 	"/>
</g>
</svg>
