<?xml version="1.0" encoding="utf-8"?>
<!-- Generator: Adobe Illustrator 16.0.0, SVG Export Plug-In . SVG Version: 6.00 Build 0)  -->
<!DOCTYPE svg PUBLIC "-//W3C//DTD SVG 1.1//EN" "http://www.w3.org/Graphics/SVG/1.1/DTD/svg11.dtd">
<svg version="1.1" id="Calque_1" xmlns="http://www.w3.org/2000/svg" xmlns:xlink="http://www.w3.org/1999/xlink" x="0px" y="0px"
	 width="150px" height="100px" viewBox="0 0 150 100" enable-background="new 0 0 150 100" xml:space="preserve">
<g>
	<polygon fill="#DDDDDD" points="79.032,53.352 78.783,53.393 78.72,53.668 78.912,53.772 79.097,53.634 	"/>
	<polygon fill="#DDDDDD" points="60.325,20.965 60.098,20.623 59.755,20.774 59.68,21.039 59.984,21.381 60.211,21.381 	"/>
	<polygon fill="#DDDDDD" points="69.581,19.674 69.354,19.863 69.506,20.054 70.188,20.396 70.226,19.863 	"/>
	<polygon fill="#DDDDDD" points="95.381,61.451 95.466,61.238 95.211,60.147 95.062,59.698 94.89,59.741 94.593,60.447 
		94.084,61.346 93.192,61.409 92.81,61.859 92.874,63.229 92.322,63.87 92.386,64.961 92.854,65.495 93.405,65.432 93.958,65.024 
		93.831,64.382 95.105,62.178 94.85,61.9 95.105,61.366 	"/>
	<polygon fill="#DDDDDD" points="50.642,47.336 50.716,47.521 50.961,47.361 50.913,47.311 50.851,47.25 	"/>
	<polygon fill="#DDDDDD" points="51.196,47.46 51.073,47.721 51.221,47.919 51.405,47.759 	"/>
	<polygon fill="#DDDDDD" points="51.785,48.478 51.614,48.179 51.466,48.315 51.576,48.538 	"/>
	<polygon fill="#DDDDDD" points="51.602,48.736 51.502,48.947 51.663,49.12 51.872,49.009 	"/>
	<polygon fill="#DDDDDD" points="51.799,49.518 51.614,49.27 51.442,49.394 51.578,49.642 	"/>
	<polygon fill="#DDDDDD" points="51.502,50.012 51.564,49.85 51.405,49.752 51.244,49.913 51.306,50.012 	"/>
	<polygon fill="#DDDDDD" points="51.748,50.67 51.822,50.446 51.797,50.262 51.638,50.236 51.49,50.373 51.329,50.398 
		51.329,50.597 51.625,50.868 	"/>
	<polygon fill="#DDDDDD" points="49.561,47.161 50.064,47.235 50.077,46.928 49.708,46.804 49.413,46.988 	"/>
	<polygon fill="#DDDDDD" points="46.806,47.188 46.806,47.189 46.977,47.202 47.076,47.053 47.078,47.053 47.636,47.084 
		47.637,47.071 47.764,47.075 47.888,47.313 47.963,47.225 48.048,47.127 48.516,47.003 48.922,47.089 48.969,46.841 48.231,46.358 
		48.189,46.344 47.754,46.181 47.262,46.135 47.262,46.136 47.26,46.135 47.027,46.372 47.029,46.373 47.029,46.373 47.238,46.459 
		47.295,46.482 47.33,46.781 47.334,46.815 46.744,46.867 46.804,47.188 	"/>
	<polygon fill="#DDDDDD" points="54.857,78.569 54.492,78.814 54.757,79.102 55.224,78.609 	"/>
	<polygon fill="#DDDDDD" points="55.468,78.814 55.122,79.121 55.143,79.224 55.733,78.997 55.978,78.69 55.589,78.426 	"/>
	<polygon fill="#DDDDDD" points="69.277,25.809 69.627,26.007 70.021,26.023 70.696,25.688 71.217,24.998 71.226,24.533 
		70.909,24.265 70.645,24.04 70.524,24.127 70.344,24.359 70.139,24.333 69.934,24.108 69.669,24.134 69.284,24.453 69.052,24.703 
		68.924,24.592 68.916,24.315 69.044,24.229 68.952,24.085 68.679,23.93 68.31,24.163 67.994,24.456 68.002,24.619 68.412,24.671 
		68.387,24.964 68.242,25.11 68.277,25.205 68.687,25.231 68.687,25.706 	"/>
	<polygon fill="#DDDDDD" points="91.278,19.934 91.591,20.296 91.927,20.296 92.119,19.908 91.567,19.328 91.351,18.577 
		90.702,18.505 90.726,19.134 90.294,19.256 90.294,19.521 90.583,19.909 	"/>
	<polygon fill="#DDDDDD" points="107.47,52.213 107.777,52.386 108.257,52.109 108.12,51.455 108.155,51.214 107.71,50.802 
		107.502,50.901 107.537,51.281 107.572,51.557 107.366,51.592 	"/>
	<polygon fill="#DDDDDD" points="46.554,46.18 46.797,45.936 46.447,45.758 44.641,44.698 44.007,44.63 43.074,44.955 
		43.074,45.132 43.816,45.146 44.166,44.942 44.221,45.092 44.949,45.269 45.596,45.854 45.448,46.057 45.475,46.289 46.015,46.424 
			"/>
	<polygon fill="#DDDDDD" points="45.515,43.813 45.501,44.152 45.717,44.37 45.865,44.152 45.691,43.868 	"/>
	<polygon fill="#DDDDDD" points="45.798,44.533 46.027,44.86 46.148,44.696 46.041,44.398 	"/>
	<polygon fill="#DDDDDD" points="46.782,45.063 46.943,44.887 46.824,44.643 46.567,44.628 46.593,44.792 	"/>
	<polygon fill="#DDDDDD" points="46.526,43.977 46.365,43.65 46.203,43.719 46.284,44.141 46.703,44.317 46.688,44.1 	"/>
	<polygon fill="#DDDDDD" points="45.96,42.904 45.812,43.054 46.041,43.135 46.082,43.406 46.298,43.461 46.432,43.122 
		46.229,42.999 	"/>
	<polygon fill="#DDDDDD" points="45.111,46.98 45.394,47.144 45.691,47.144 45.879,46.926 45.596,46.723 45.111,46.846 	"/>
	<polygon fill="#DDDDDD" points="56.56,31.581 55.085,32.993 55.232,33.328 57.038,33.996 57.295,33.551 57.148,32.809 
		56.558,32.883 56.226,32.512 56.778,31.955 	"/>
	<polygon fill="#DDDDDD" points="49.035,74.164 48.853,74.001 48.673,74.272 48.764,74.746 48.944,74.764 	"/>
	<polygon fill="#DDDDDD" points="88.214,39.906 88.042,39.782 87.65,39.997 87.265,40.022 87.24,40.27 87.429,40.401 87.683,40.41 	
		"/>
	<polygon fill="#DDDDDD" points="73.728,30.35 73.881,30.529 74.394,30.555 74.47,31.354 74.035,31.405 73.983,31.818 
		73.651,32.309 74.188,32.359 74.317,32.437 73.293,33.029 73.651,33.209 74.727,32.72 75.417,32.796 75.775,32.642 75.929,32.436 
		75.751,32.332 75.776,32.203 76.031,32.049 76.057,31.766 75.878,31.456 75.469,31.301 75.214,30.708 74.882,30.063 74.78,29.522 
		74.934,29.315 74.934,29.058 74.345,29.058 74.243,28.903 74.498,28.517 74.317,28.338 73.753,28.751 73.446,29.782 73.753,29.757 
			"/>
	<polygon fill="#DDDDDD" points="72.855,30.261 72.632,30.785 72.146,30.76 72.12,31.197 72.273,31.507 71.71,31.869 71.71,32.023 
		71.965,32.203 72.324,32.203 73.449,31.791 73.576,30.954 73.578,30.84 73.706,30.607 73.424,30.245 72.964,30.297 	"/>
	<polygon fill="#DDDDDD" points="83.034,28.422 82.957,28.315 82.741,28.309 82.616,28.436 82.706,28.569 82.922,28.584 	"/>
	<polygon fill="#DDDDDD" points="82.351,29.525 82.476,29.574 82.72,29.581 83.125,29.25 83.181,29.138 82.937,28.885 
		82.728,28.864 82.351,29.314 	"/>
	<polygon fill="#DDDDDD" points="78.563,38.395 78.859,38.444 79.081,38.232 79.081,37.549 78.884,37.486 78.515,37.673 	"/>
	<polygon fill="#DDDDDD" points="78.981,36.875 78.922,36.591 78.649,36.864 78.625,37.112 78.847,37.249 78.934,37.236 	"/>
	<polygon fill="#DDDDDD" points="79.078,29.392 78.877,28.871 78.773,28.854 78.195,29.494 78.174,29.911 78.438,30.6 
		78.851,30.521 78.8,29.959 79.084,29.642 	"/>
	<polygon fill="#DDDDDD" points="79.57,30.119 79.426,29.989 79.296,29.984 79.125,30.141 79.146,30.385 79.549,30.396 	"/>
	<polygon fill="#DDDDDD" points="81.918,28.989 81.804,28.669 81.51,28.901 81.657,29.243 	"/>
	<polygon fill="#DDDDDD" points="80.758,38.722 80.067,38.831 80.091,39.018 80.712,39.33 80.805,39.433 80.968,39.456 
		80.96,38.831 	"/>
	<polygon fill="#DDDDDD" points="80.759,40.176 80.968,40.246 81.062,40.167 80.983,39.87 80.751,39.918 	"/>
	<polygon fill="#DDDDDD" points="84.507,40.258 85.153,40.235 85.3,40.043 85.226,39.954 85.006,40.035 84.675,40.035 84.58,39.894 
		84.353,39.887 84.266,40.029 84.39,40.104 	"/>
	<g>
		<path fill="#DDDDDD" d="M40.244,41.082l0.973,0.455l0.833,0.069l0.035-0.524l1.737,0.035l0.347,0.385l0.07,0.875l-0.208,0.49
			l0.243,0.839h0.522l0.521-0.805l-0.208-0.385l-0.208-0.84l0.312-0.946l1.424-1.225l1.077-0.315l-0.139-1.016l1.494-1.61
			l1.494-0.246l-0.243-0.838l1.459-0.84l0.177-0.067l0.834-0.28l-0.695,0.7l0.139,0.42h0.487l0.383-0.561l0.869-0.035l0.452-0.84
			h-0.277l-0.209,0.315l-0.417,0.104l-0.417-0.28l-0.035-0.7l0.243-0.77l-0.174-0.211l-0.904,0.174l-0.729,0.175l1.216-0.945
			l0.694,0.034l1.39,0.315l0.66-0.7l1.389-0.351l-0.035-0.77l-1.251-1.505l-0.382-2.486l-1.354,0.911l-0.557-0.315l0.312-1.016
			l-0.729-1.016l-1.389-0.489l-1.112,2.171l-0.069,1.225l-0.417,0.805l-0.869,0.035l-0.069,1.4l-0.557,0.735l-0.417-0.28
			l0.035-0.455l0.347-1.609l-1.599-0.701l-0.266-0.268c-3.198,4.051-5.55,8.8-6.793,13.979L40.244,41.082z"/>
		<path fill="#DDDDDD" d="M52.532,76.583l-0.668-0.545l0.541-1.728l-0.216-0.764l0.902-0.31l-0.162-0.907h0.578l0.505-0.218
			l0.667-1.164l-0.681-1.026l0.898,0.261l1.143-1.146l0.062-0.099l0.872-1.677l0.032-1.409l1.626-1.049h0.911l0.716-1.213
			l0.13-2.326l-0.293-0.622l1.724-1.574l0.066-1.736l-2.342-1.146l-2.829-0.885L55.38,55.17l0.359-0.753l-0.098-1.146l-0.292-0.097
			l-1.065-0.656l-0.402-0.012l-0.44,0.273l-0.285-0.262l-0.12-0.064L52.03,51.54l-0.104-0.053l-0.479-0.3l-0.634-0.782l-0.932,0.195
			l-1.101-0.3l-0.478-0.562l-0.479,0.496l-0.162-0.696l-0.288-0.029l-1.9,1.566l-0.138-0.013l-0.497-0.205l-0.377-0.205
			l-0.376,0.257l-0.448,0.226l-0.458-0.185l-0.142-0.041l-0.096-0.058l-0.158-0.209l-0.194-0.379l0.01-0.093l0.356-1.016
			l-0.01-0.626l-0.056-0.12l-0.382-0.455l-1.289,0.049l-0.106-0.049L40.97,47.74l-0.059-0.117l0.399-0.744l0.05-0.109l0.698-1.23
			l-0.349-0.316l-1.36,0.316l-0.314,0.914l-0.802,0.141l-0.382-0.157c-0.043,0.452-0.079,0.907-0.105,1.363l0.628,0.516l0.078,0.071
			l0.827,0.605l0.118,0.057l0.655,0.327l0.116,0.044l0.169,0.09l0.092,0.078l0.213,0.489l0.022,0.114v0.4l0.661,0.605l0.404,0.284
			l0.105,0.064l0.672,0.174l0.417,0.083l0.071-0.492l0.448-0.227l0.397,0.205l0.156,0.25l0.017,0.117l0.116,1.218l-0.663,1.625
			l-0.087,0.071l-0.66,0.41l-0.048,0.608l-0.132,0.199l0.416,0.398l-0.18,0.197l-0.117,0.093l-0.271,0.274l0.019,0.437l2.363,4.308
			l2.454,1.581l0.064,0.119L48.745,73.6l0.703,0.401l-0.079,1.734c0.79,0.787,1.616,1.538,2.475,2.25l0.326-0.513L52.532,76.583z"/>
	</g>
	<path fill="#DDDDDD" d="M50.332,23.6l0.406-0.335l-0.157-0.154c-0.13,0.119-0.259,0.24-0.387,0.36L50.332,23.6z"/>
	<path fill="#DDDDDD" d="M53.924,21.422l-0.618,1.028l-0.681,0.311l-0.496-0.093l-0.247-0.218l-0.371,0.498l0.155,0.498l0.526,0.03
		l0.65-0.311l0.557,1.434l1.393,0.904l0.958-1.216l-0.804-1.308l0.465-0.53l0.65,1.091l1.174-1.028l-0.216-0.468l-0.804,0.25
		l-0.557-1.527l0.526-0.872l-0.576-0.613c-0.599,0.379-1.185,0.774-1.76,1.186l0.259-0.012L53.924,21.422z"/>
	<path fill="#DDDDDD" d="M60.478,18.688l-0.492,1.024l0.682-0.114l0.379,0.228l0.038,0.493l-0.834,0.038l0.455,0.454l0.569,0.114
		l-1.251,1.669l-0.152,1.023l0.265,0.835l-0.19,0.493l0.342,1.062l0.644,0.722l0.19-0.038l0.417-0.114l0.038,0.606l0.266,0.38
		l0.492-0.038l0.379-1.403l1.138-1.403l1.708-0.682l1.062-1.328l0.492,0.228h1.024l0.834-0.835l1.024-0.417l0.115-0.645
		l-0.645-0.568l-0.569-0.19l-0.304-0.796l0.722-0.417l1.138,0.606l0.38-0.417l-0.607-0.342l1.291-1.745l-0.228-0.759l-0.607-0.038
		l0.228-0.682l0.759-0.342l1.555-1.366l-0.231-0.25c-0.758,0.041-1.508,0.106-2.252,0.194l-0.627,0.627l0.265-0.586
		c-3.727,0.474-7.275,1.514-10.561,3.027l0.056,0.061L60.478,18.688z"/>
	<path fill="#DDDDDD" d="M90.868,18.118l0.961,0.243l0.122-0.491c-0.264-0.14-0.528-0.275-0.796-0.408l-0.118,0.196L90.868,18.118z"
		/>
	<path fill="#DDDDDD" d="M95.614,20.45l0.142,0.777l-0.667-0.425l-1.717-0.317l-0.211,0.564l-1.367,0.494l-0.211-0.353l-1.788,0.988
		l-0.035,0.672l-0.701,0.105l0.211-0.494V21.97l-0.702-0.247l-0.456,0.177l0.385,0.742l0.28,0.494v0.389l-0.525-0.105l-0.104-0.106
		l-0.526,0.565l0.28,0.493l-1.191-0.034l0.385,0.495l-0.104,0.212h-0.63l-0.456-0.318l-0.105-0.883l-0.736-0.283v-0.353l1.543,0.317
		l0.841,0.071l0.351-0.529l-0.315-0.565l-2.243-0.883l-0.774,0.192l-0.265,0.228l-0.037-0.091l0.281-0.207l-0.025-0.231
		l-0.179-0.103l0.025-0.283h0.154v-0.155l-0.666-0.18l-0.998,0.104l-0.101,0.438l-0.23-0.076l-0.153-0.259l-0.487,0.025
		l-0.052,0.489l-0.229,0.104l-0.129-0.258l-1.023,0.824l0.205,0.231l-0.384,0.18l-0.87,1.728l-0.308,0.206l0.025,0.155l0.308,0.154
		l-0.077,0.335l-0.512-0.026l-0.154-0.18l-0.332,0.386l-0.205,0.155l-0.051,0.361l-0.179,0.104l-0.461,0.103l-0.229,0.723
		l0.153,1.187l0.179,0.541l0.205,0.206l0.46-0.025l0.666-0.644l0.255-0.438l0.077,0.645l0.023,0.177l0.641,0.982l0.153,0.772h0.282
		l0.204-0.438l0.589-0.207l-0.025-1.108l0.384-0.335l0.256-0.387l0.052-0.283l-0.666-0.489l-0.025-0.619l0.384-0.645l0.282-0.025
		l0.486-0.671v-0.49l0.69-0.489l0.122,0.003l0.288,0.127l0.179,0.335l-0.179,0.231l-0.896,0.979L82.191,26.2l0.205,0.748l0.69,0.517
		l0.921-0.438l0.742-0.104l0.065,0.067l-0.05,0.262l0.372,0.263l-0.336,0.222l-0.224,0.004l-0.095-0.001l-0.781-0.028l-0.495,0.303
		L83.2,28.238l0.32,0.303l0.049,0.118l0.021,0.535l-0.079,0.085l-0.3-0.007l-0.411,0.394h-0.349l0.021,0.492l-0.209,0.387
		l-0.411,0.097l-0.063-0.076l0.099-0.197l-0.244,0.028l-0.656,0.218l-0.502,0.437l-0.113,0.011l-0.296-0.256L79.74,30.71
		l-0.376,0.164l-0.242-0.027l-0.229-0.229l-0.417,0.068v0.352l-0.498,0.081l-0.146,0.054L77.2,31.483l0.134,0.121l0.015,0.312
		l-0.135-0.026l-0.147-0.23l-0.353,0.56l-0.064,0.104l-0.09,0.223l-0.079,0.081l-0.309,0.075l-0.616,0.671l-0.186,0.013
		l-0.247-0.174l-0.161,0.037l-0.123,0.386l-0.901,0.024l0.026,0.199l0.616,0.41l0.715,0.572l-0.012,0.684l-0.382,0.671l-0.1,0.101
		h-1.777l-0.359-0.162l-0.173,0.013l-0.209,0.436l0.074,0.447l0.013,0.137l-0.087,1.207l-0.247,0.223l0.025,0.137l0.173,0.286
		l-0.112,0.349l0.186,0.063l0.433-0.051l0.099-0.036l0.481,0.261l0.555,0.038l1.11-0.273l0.543-0.684l0.013-0.696l0.962-0.87
		l0.049-0.385l0.016-0.116l0.26-0.299l0.53,0.013l0.147,0.137l0.529-0.038l0.272-0.348l0.1-0.059l0.524-0.019l1.157,1.345
		l0.724,0.209l0.427,0.403l0.102,0.919l0.229-0.134l0.198-0.5l-0.049-0.36l0.339-0.031l0.049-0.203l-0.956-0.458l-0.906-0.891
		l-0.361-0.533l-0.088-0.507l0.462-0.11l0.14,0.066l0.006,0.108l-0.061,0.352l0.229,0.061l0.115-0.171l0.18,0.158l0.144,0.502
		l0.986,0.46l0.097-0.111l0.108,0.062l0.059,0.178l0.242,0.044l0.064,0.097v0.643l0.184,0.348l0.133-0.016l0.059,0.119l-0.015,0.186
		l0.646,0.325l0.308,0.118l-0.161,0.17l-0.36,0.037l-0.052,0.163l0.125,0.28l0.403,0.215l0.176,0.015l0.021-0.48l0.264-0.318
		l-0.719-0.852l0.095-0.288l0.169-0.007l0.256,0.206l0.162-0.081l0.052-0.288l0.756,0.007l0.128-0.015l0.433-0.132l0.198-0.133
		l-0.059-0.215l-0.205-0.163l-0.038-0.108l-0.095-0.444l0.088-0.236l0.088-0.078l0.455-0.518l-0.088-0.26l0.038-0.09l0.551-0.635
		l0.315,0.058l0.293,0.204l-0.258,0.34l0.349,0.544h0.371l0.19-0.362l0.394-0.08l0.011-0.294l-0.73-0.113l0.022-0.316h0.708
		l0.537-0.464l0.123,0.06l0.11,0.179l-0.525,0.564l-0.141,0.53l0.315,0.459l1.018,0.353l0.079,0.084l0.456,0.596l-0.004,0.106
		l-0.311,0.329l-1.145-0.034l-0.687-0.411l-0.669-0.017l-0.769,0.544l-0.72,0.033l-0.066,0.412h-0.817l-0.326,0.297v0.164
		l0.197,0.165v0.182l-0.083,0.215l0.083,0.181l0.262-0.131l0.263,0.28l-0.066,0.198l-0.097,0.133l0.146,0.164l0.72,0.148
		l0.506-0.215v-0.312l0.246,0.049l0.589,0.346l0.637-0.099l0.277-0.264l0.181,0.065v0.297l-0.029,0.062l-0.05,0.354l-0.016,0.107
		l0.008,0.271l-0.114,0.413l-0.017,0.1l-0.221,0.701l-0.06,0.076l-0.082,0.005h-0.459l-0.363-0.2h-0.199l-0.428,0.356l-0.344-0.01
		l-0.726-0.2l-0.372-0.01l-0.116-0.017l-0.635-0.093l-0.3-0.401h-0.789l-0.399,0.338l-0.028,0.164l0.246,0.237l0.055,0.237
		l-0.562,0.237l-1.079-0.494l-0.3-0.466l-1.098-0.319l-0.101-0.019L79.45,40.85l-0.019-0.146l0.137-0.229V39.98l-0.118-0.064
		l-0.019-0.274l0.118-0.155l-0.01-0.2l-0.253-0.165l-0.772,0.312l-0.144,0.022l-0.568-0.191l-2.369,0.445l-0.516,0.392l-0.116,0.022
		H73.19l-0.315,0.7l-0.727,0.35l-0.6,1.624l-1.169,0.7l-1.642,2.705l0.011,0.111l0.304,0.397L68.99,48.43l-0.062,0.188l-0.125,0.224
		l-0.039,0.223l0.202,0.146l0.061,0.128l-0.018,0.155l0.004,0.107l0.173,0.42l0.08,0.182l0.195,0.386l0.059,0.09l0.424,0.652
		l0.065,0.071l0.788,0.762l0.083,0.084l1.531,1.023l0.128,0.03l0.597-0.422l0.743-0.13l0.757,0.163l0.179,0.042l0.226-0.009
		l0.617-0.35l0.111-0.062l0.374-0.219l0.112-0.026h0.296l0.104-0.018l0.547,0.026l0.66,0.735l0.32,0.088l0.251-0.122l0.383-0.054
		l0.105,0.012l0.449,0.413l-0.032,0.639l0.025,0.121l-0.009,0.194l-0.041,0.128l-0.481,0.931l1.131,1.237l0.035,0.123l0.081,0.17
		l0.06,0.082l0.243,0.315l0.046,0.17l0.476,1.776l-0.011,0.561l-0.696,0.748l-0.104,1.215l-0.018,0.12l0.067,0.739l0.868,1.277
		l-0.151,0.655l0.009,0.345l0.667,1.666l0.054,0.137l0.345,0.989l0.616,0.581l-0.44,0.512l0.285,0.642l0.658,0.252l0.524-0.446
		l1.503,0.008l0.107-0.134l0.667-0.117l2.255-2.246l-0.008-0.707l0.033-0.369l0.884-0.539l0.143-0.799v-1.319l1.419-1.161
		l0.242,0.009l0.86-0.824l-0.135-1.699l-0.04-0.116l-0.549-1.061l-0.028-1.015l0.177-0.485l0.089-0.09l0.689-1.082l0.157-0.07
		l3.043-3.258l0.562-1.602l0.023-0.542l-0.217-0.129l-0.609,0.234l-0.113,0.032l-1.413,0.485l-0.168,0.008l-0.569-0.388
		l-0.121-0.027l0.008-0.689l-0.202-0.124l-0.095-0.071l-1.306-0.973l-0.271-0.909l-0.149-0.114l-0.064-0.119l-1.111-1.776
		l-0.183-0.065l-0.028-0.695l-1.307-1.618l-0.163-0.521l0.018-0.301l0.245,0.018l0.272,0.888l0.236,0.118l0.136-0.101l0.064-0.016
		l1.93,2.332v0.632l0.192,0.292l0.529,0.242l0.773,1.263l0.072,0.131l0.201,0.597v0.583l0.482,0.438l3.401-1.386l0.031-0.381
		l0.09-0.057l0.699-0.023l1.519-2.236v-0.364l-1.254-0.656l-0.211-0.33l-0.029-0.107l0.072-0.364l-0.433,0.121l-0.483,0.729
		l-0.775,0.004l-0.186-0.007l-0.167,0.011L94.7,44.388l-0.979-1.362l-0.101-0.166l0.002-0.681l0.077-0.053l0.053-0.05l0.079-0.052
		l0.441,0.033l0.343,0.247l0.017,0.494l1.357,0.79h0.507l0.311-0.264L97.2,43.31l0.229,0.526l1.466,0.204l0.106-0.009h0.553
		l0.189-0.156h1.052l0.948,0.835l0.125,0.028l0.601-0.026l0.017,0.262l-0.431,0.226l0.276,0.521l0.533,0.175l0.328-0.243
		l0.155-0.434l0.189-0.086l0.225,0.226l-0.068,0.557l-0.155,0.261l0.035,0.452l2.292,4.756l0.64-0.312l0.379-1.372l-0.017-1.685
		l2.174-2.347v-0.557l0.447-0.175l0.113,0.027l0.086,0.188l0.557,0.01l0.315-0.302l0.229,0.138l0.047,0.428l0.05,0.113l0.186,0.175
		c-1.145-9.725-6.129-18.273-13.396-24.088l-0.097,0.661l-1.087,0.106l-0.069-0.39l0.631-0.389l0.057-0.433
		c-0.73-0.562-1.482-1.096-2.257-1.602l0.098,0.587L95.614,20.45z M95.106,36.679l-0.087,0.367h-0.578v0.496l0.621,0.41
		l-0.192,0.562v0.26l-0.021,0.119l-0.098,0.082L94,38.927l-0.948-0.691l0.046-0.116l0.163-0.691l0.408,0.065l-0.017-0.198
		l-0.672-0.589l-0.084-0.096l-0.561-0.53v-0.671l-0.35-0.106l0.069-0.564l0.561-0.671l0.097-0.035l0.571-0.244l0.64-0.022
		l0.044,0.977h-0.374l-0.285,0.466l0.373,0.621l0.551,0.312l0.051,0.355l0.202-0.067l0.187-0.222l0.309,0.067l0.154,0.311
		L95.106,36.679z"/>
	<path fill="#DDDDDD" d="M84.504,84.892h-0.895l-0.244,0.298l-0.895-0.03l-2.683,0.209l-2.113-0.209l-5.854,0.03l-0.976,0.179
		l-1.057-0.03l-0.57-0.209l-2.358,0.269l-0.078-0.009C69.423,86,72.173,86.322,75,86.322c3.383,0,6.657-0.464,9.765-1.329
		L84.504,84.892z"/>
</g>
<g>
	<path fill="#DDDDDD" d="M86.383,90.089c-0.384,0.095-0.79,0.216-1.162,0.318c0.142,0.518,0.355,1.299,0.497,1.815l1.162-0.317
		C87.771,91.661,87.33,89.839,86.383,90.089z"/>
	<path fill="#DDDDDD" d="M70.829,91.467c-0.392-0.053-0.805-0.089-1.198-0.132c-0.059,0.533-0.121,1.095-0.179,1.618l1.198,0.133
		C71.557,93.187,71.782,91.582,70.829,91.467z"/>
	<path fill="#DDDDDD" d="M55.539,88.88c-0.996,2.174,2.008,3.551,3.004,1.377C59.532,88.1,56.528,86.723,55.539,88.88z"/>
	<polygon fill="#DDDDDD" points="60.876,8.549 60.701,10.8 62.394,10.232 	"/>
	<path fill="#DDDDDD" d="M42.997,76.522c-0.409,0.348-0.839,0.714-1.241,1.057l0.782,0.918c0.593,0.695,1.856-0.319,1.241-1.057
		C43.529,77.133,43.253,76.823,42.997,76.522z"/>
	<path fill="#DDDDDD" d="M53.901,10.116c-0.423,0.215-0.866,0.466-1.274,0.685c0.305,0.567,0.765,1.424,1.07,1.991l1.274-0.686
		C55.947,11.583,54.942,9.57,53.901,10.116z"/>
	<path fill="#DDDDDD" d="M86.871,6.556l-0.927-0.253l-1.114,4.076l0.927,0.254C88.188,11.297,89.302,7.22,86.871,6.556z"/>
	<path fill="#DDDDDD" d="M75,0C47.385,0,25,22.386,25,50s22.385,50,50,50c27.614,0,50-22.386,50-50S102.614,0,75,0z M112.141,30.937
		l-1.652-0.177l0.707,1.244c-0.364,0.207-0.592,0.337-0.957,0.544l-1.673-2.943l0.161-0.092l3.197,0.265
		c0.4,0.049,1.043-0.103,0.744-0.629c-0.137-0.239-0.349-0.348-0.642-0.182c-0.201-0.353-0.32-0.562-0.518-0.909
		c0.897-0.525,1.687-0.167,2.126,0.564C114.349,29.808,113.457,31.011,112.141,30.937z M75,86.389
		c-20.098,0-36.389-16.292-36.389-36.389S54.902,13.61,75,13.61c20.097,0,36.389,16.293,36.389,36.39S95.097,86.389,75,86.389z
		 M107.014,73.3l-0.709,0.94l-1.464,0.111l-0.113-0.085l0.479-1.433l1.688,0.376L107.014,73.3z M111.858,27.152
		c-4.328,3.363-9.308-3.044-4.979-6.407C111.197,17.389,116.177,23.796,111.858,27.152z M100.405,15.077
		c1.763-2.03,4.188-1.731,5.713-0.419c1.242,1.068,2.004,2.902,0.857,4.703c-0.522-0.45-0.985-0.848-1.508-1.298
		c0.31-0.792,0.092-1.457-0.551-2.01c-0.899-0.773-2.072-0.605-2.928,0.388c-0.759,0.882-0.84,2.154,0.061,2.943
		c0.65,0.561,1.453,0.685,2.169,0.183c0.514,0.442,0.984,0.848,1.507,1.297c-1.682,1.504-3.602,1.015-4.878-0.083
		C99.316,19.478,98.659,17.123,100.405,15.077z M90.573,11.272l2.307-4.746c0.568,0.276,1.168,0.567,1.737,0.844l-2.291,4.716
		c-0.281,0.579,0.14,1.136,0.668,1.393s1.215,0.239,1.497-0.341l2.291-4.716C97.361,8.704,97.972,9,98.54,9.276l-2.306,4.746
		c-0.761,1.565-2.571,1.804-4.035,1.093C90.746,14.409,89.812,12.838,90.573,11.272z M84.479,3.992l2.878,0.786
		c4.965,1.381,2.891,8.968-2.086,7.631l-2.878-0.786L84.479,3.992z M73.686,3.083l5.873,0.2c-0.021,0.599-0.041,1.196-0.062,1.807
		l-1.932-0.065l-0.207,6.099c-0.666-0.022-1.332-0.046-1.999-0.068l0.207-6.099l-1.942-0.065C73.645,4.28,73.666,3.683,73.686,3.083
		z M68.749,3.473c1.624-0.219,3.501,0.429,4.085,2.482c-0.683,0.092-1.288,0.173-1.971,0.266c-0.387-0.758-1.029-1.036-1.869-0.923
		c-1.176,0.158-1.829,1.147-1.654,2.446c0.155,1.153,1.053,2.059,2.241,1.91c0.851-0.115,1.477-0.633,1.576-1.501
		c0.672-0.091,1.288-0.174,1.971-0.266c0.008,2.256-1.633,3.366-3.301,3.592c-1.991,0.279-4.188-0.793-4.559-3.457
		C64.92,5.356,66.755,3.741,68.749,3.473z M59.454,5.652l0.825-0.276l5.836,6.185l0.093,0.278l-1.875,0.628l-0.755-0.796
		l-2.957,0.99l-0.124,1.09l-1.875,0.628l-0.093-0.278L59.454,5.652z M53.055,8.519c3.339-1.782,6.122,3.394,2.788,5.186l-1.284,0.69
		l0.958,1.781c-0.598,0.321-1.195,0.642-1.782,0.958c-1.247-2.319-2.493-4.639-3.745-6.967C50.995,9.626,52.03,9.069,53.055,8.519z
		 M42.448,15.906l4.572,0.687l0.253-4.654l0.559-0.459l5.037,6.126c-0.532,0.438-1.064,0.875-1.597,1.312l-2.239-2.723l-0.181,2.431
		l-0.174,0.144l-2.411-0.3l2.238,2.723c-0.532,0.438-1.064,0.876-1.597,1.313l-5.037-6.127L42.448,15.906z M40.698,17.755
		c0.5,0.441,0.813,0.718,1.321,1.167l-0.613,0.694l3.277,2.896l0.666-0.754c0.5,0.441,0.813,0.719,1.33,1.175
		c-0.89,1.008-1.766,1.998-2.656,3.006c-0.517-0.456-0.83-0.732-1.33-1.174l0.666-0.755l-3.277-2.895l-0.614,0.694
		c-0.508-0.449-0.821-0.726-1.321-1.167C39,19.677,39.845,18.72,40.698,17.755z M36.674,21.147l1.436,2.048l-0.995,1.344
		l-1.437-2.048L36.674,21.147z M34.037,26.619c3.523,2.08,2.345,1.385,5.246,3.098l1.46-2.473c0.584,0.345,0.983,0.581,1.567,0.926
		c-0.828,1.401-1.678,2.842-2.494,4.224l-6.813-4.023C33.348,27.786,33.687,27.212,34.037,26.619z M32.577,63.818
		c0.203,0.527,0.38,0.983,0.586,1.52c-0.782,0.302-0.048,2.229,0.672,1.95c0.43-0.166,0.331-0.713,0.128-1.341
		c-0.418-1.373-0.301-2.427,1.028-2.96c2.632-1.077,4.477,3.701,1.811,4.69c-0.213-0.554-0.37-0.957-0.577-1.493
		c0.817-0.315,0.109-1.939-0.64-1.711c-0.479,0.145-0.399,0.639-0.248,1.216c0.34,1.271,0.617,2.538-0.921,3.131
		C31.834,69.817,29.857,64.827,32.577,63.818z M34.923,73.98c-0.687-1.158-0.613-2.68,0.635-3.419l3.785-2.241
		c0.269,0.454,0.552,0.933,0.82,1.386l-3.76,2.228c-0.462,0.273-0.425,0.853-0.175,1.274s0.736,0.725,1.197,0.451l3.761-2.227
		c0.273,0.462,0.562,0.948,0.83,1.401l-3.785,2.242C36.983,75.814,35.614,75.147,34.923,73.98z M42.588,80.284l-0.755,2.338
		l-0.187,0.159l-1.221-1.434l0.744-2.119l-0.568-0.667l-1.477,1.259c-0.366-0.431-0.739-0.868-1.093-1.284
		c1.67-1.422,3.341-2.846,5.019-4.274c0.617,0.725,1.252,1.47,1.875,2.201C46.597,78.44,44.529,80.82,42.588,80.284z M49.779,89.392
		l-0.81-4.576l-1.887,2.633c-0.475-0.34-0.949-0.68-1.416-1.015l3.855-5.381l0.498,0.356l0.812,4.59l1.881-2.625
		c0.467,0.335,0.934,0.669,1.4,1.003l-3.844,5.365L49.779,89.392z M60.109,90.975c-1.902,4.151-8.047,1.335-6.145-2.816
		C55.863,84.016,62.008,86.832,60.109,90.975z M66.579,90.887l-1.555-0.419l-1.322,4.912c-0.537-0.145-1.073-0.289-1.61-0.434
		l1.322-4.911l-1.564-0.421c0.132-0.491,0.262-0.974,0.392-1.455l4.729,1.272C66.841,89.914,66.711,90.396,66.579,90.887z
		 M72.964,96.572l-0.027,0.243l-1.872-0.207l-0.91-2.052l-0.871-0.096l-0.213,1.928c-0.562-0.062-1.132-0.125-1.675-0.186
		c0.241-2.181,0.481-4.361,0.724-6.551c0.945,0.104,1.919,0.212,2.874,0.317c2.572,0.294,2.698,3.443,0.917,4.383L72.964,96.572z
		 M75.105,96.799c-0.097-2.201-0.195-4.402-0.292-6.585c1.523-0.067,2.568-0.113,4.11-0.182c0.022,0.488,0.045,0.997,0.067,1.505
		c-0.979,0.043-1.468,0.065-2.437,0.107l0.041,0.932l2.239-0.1c0.021,0.499,0.044,0.997,0.066,1.496l-2.239,0.1
		c0.017,0.385,0.033,0.762,0.051,1.156c0.97-0.042,1.533-0.067,2.521-0.111c0.021,0.489,0.044,0.997,0.066,1.496
		C77.758,96.682,76.629,96.731,75.105,96.799z M87.289,93.364l-1.171,0.321l0.445,1.625c-0.546,0.149-1.091,0.299-1.626,0.445
		c-0.579-2.116-1.158-4.232-1.74-6.356c0.917-0.251,1.861-0.51,2.797-0.766C89.039,87.81,90.331,92.532,87.289,93.364z
		 M92.247,93.485l-2.683-6.021c0.517-0.229,1.024-0.455,1.549-0.689c1.387,3.114,0.923,2.073,2.065,4.637l2.185-0.974
		c0.229,0.517,0.387,0.869,0.617,1.386C94.741,92.375,93.468,92.941,92.247,93.485z M101.819,88.273l-0.776-0.481l-2.175,1.423
		l0.131,0.905l-1.379,0.902l-0.134-0.204l-1.042-7.007l0.607-0.396l6.013,3.751l0.134,0.205L101.819,88.273z M108.586,82.481
		l-4.646-0.069l2.229,2.35c-0.424,0.402-0.847,0.804-1.264,1.199l-4.556-4.802l0.444-0.421l4.66,0.069l-2.224-2.343
		c0.417-0.396,0.834-0.791,1.25-1.187l4.543,4.788L108.586,82.481z M110.903,79.843c-1.76-1.326-3.52-2.653-5.265-3.969
		c0.919-1.219,1.549-2.054,2.479-3.287c0.391,0.295,0.797,0.602,1.203,0.907c-0.59,0.783-0.885,1.174-1.469,1.948l0.744,0.562
		l1.35-1.79c0.398,0.301,0.798,0.602,1.196,0.901l-1.35,1.79c0.308,0.232,0.608,0.46,0.925,0.698
		c0.584-0.775,0.924-1.227,1.52-2.016c0.392,0.295,0.797,0.601,1.195,0.901C112.502,77.723,111.821,78.625,110.903,79.843z
		 M115.239,73.532l-4.448-2.465l-0.786,1.417c-0.444-0.246-0.881-0.488-1.317-0.73l2.373-4.283c0.437,0.242,0.873,0.483,1.318,0.73
		l-0.78,1.408l4.448,2.465C115.777,72.561,115.509,73.047,115.239,73.532z M111.528,66.399c0.544-1.424,0.917-2.4,1.469-3.843
		c0.457,0.175,0.933,0.356,1.407,0.538c-0.35,0.915-0.524,1.372-0.871,2.278l0.87,0.332l0.801-2.093
		c0.466,0.179,0.933,0.356,1.398,0.535l-0.801,2.093c0.361,0.138,0.713,0.272,1.082,0.413c0.347-0.905,0.548-1.434,0.901-2.356
		c0.457,0.175,0.932,0.356,1.397,0.534c-0.551,1.442-0.954,2.498-1.499,3.923C115.626,67.967,113.568,67.18,111.528,66.399z"/>
	<polygon fill="#DDDDDD" points="98.539,87.697 99.783,86.883 98.204,85.846 	"/>
	<path fill="#DDDDDD" d="M110.589,25.52c2.249-1.748-0.186-4.88-2.434-3.132C105.889,24.148,108.323,27.281,110.589,25.52z"/>
</g>
</svg>
