<?xml version="1.0" encoding="utf-8"?>
<!-- Generator: Adobe Illustrator 16.0.0, SVG Export Plug-In . SVG Version: 6.00 Build 0)  -->
<!DOCTYPE svg PUBLIC "-//W3C//DTD SVG 1.1//EN" "http://www.w3.org/Graphics/SVG/1.1/DTD/svg11.dtd">
<svg version="1.1" id="Calque_1" xmlns="http://www.w3.org/2000/svg" xmlns:xlink="http://www.w3.org/1999/xlink" x="0px" y="0px"
	 width="150px" height="100px" viewBox="0 0 150 100" enable-background="new 0 0 150 100" xml:space="preserve">
<g>
	<path fill="#DDDDDD" d="M74.825,11.81c-15.117,0-27.372,12.254-27.372,27.371c0,15.116,12.254,27.371,27.372,27.371
		c15.116,0,27.37-12.255,27.37-27.371C102.195,24.063,89.941,11.81,74.825,11.81z M74.825,62.174
		c-12.578,0-22.773-10.196-22.773-22.773s10.196-22.773,22.773-22.773C87.402,16.627,97.6,26.823,97.6,39.4
		S87.402,62.174,74.825,62.174z"/>
	<g>
		<g enable-background="new    ">
			<path fill="#DDDDDD" d="M68.323,41.008l2.016,1.125c-0.453,1.723-1.368,3.058-2.746,4.004c-1.377,0.947-2.96,1.42-4.75,1.42
				c-2.346,0-4.229-0.761-5.646-2.282c-1.418-1.521-2.127-3.403-2.127-5.646c0-2.457,0.712-4.413,2.138-5.869
				c1.425-1.454,3.285-2.183,5.58-2.183c2.027,0,3.731,0.554,5.112,1.659v-1.414h2.005V36.8h-2.005
				c-0.446-1.009-1.133-1.79-2.06-2.344c-0.928-0.553-1.904-0.83-2.929-0.83c-1.544,0-2.812,0.558-3.804,1.672
				c-0.991,1.112-1.487,2.52-1.487,4.221c0,1.744,0.531,3.17,1.593,4.276c1.062,1.106,2.32,1.66,3.775,1.66
				c1.195,0,2.283-0.385,3.263-1.153C67.23,43.533,67.922,42.435,68.323,41.008z"/>
			<path fill="#DDDDDD" d="M72.22,47.312v-5.625h1.938v1.37c0.928,1.685,2.142,2.527,3.643,2.527c0.764,0,1.41-0.233,1.938-0.701
				c0.526-0.468,0.791-1.081,0.791-1.838c0-0.735-0.215-1.265-0.646-1.587c-0.43-0.323-1.244-0.645-2.439-0.964
				c-1.388-0.371-2.417-0.722-3.084-1.053c-0.668-0.33-1.201-0.802-1.599-1.415c-0.396-0.612-0.595-1.337-0.595-2.177
				c0-1.3,0.433-2.337,1.297-3.113c0.865-0.775,1.95-1.164,3.257-1.164c1.241,0,2.392,0.401,3.454,1.202V31.74h1.894v4.7h-1.894
				v-1.08c-0.795-1.196-1.891-1.794-3.286-1.794c-0.847,0-1.496,0.195-1.949,0.585c-0.453,0.391-0.679,0.856-0.679,1.398
				c0,0.416,0.115,0.781,0.345,1.098c0.23,0.315,0.523,0.548,0.879,0.695c0.356,0.149,1.06,0.355,2.107,0.623
				c1.365,0.355,2.355,0.688,2.973,0.996c0.616,0.308,1.146,0.822,1.592,1.542c0.445,0.722,0.668,1.549,0.668,2.485
				c0,1.321-0.467,2.414-1.398,3.274c-0.932,0.862-2.084,1.293-3.457,1.293c-1.412,0-2.682-0.509-3.81-1.525v1.28L72.22,47.312
				L72.22,47.312z"/>
			<path fill="#DDDDDD" d="M84.326,47.312v-5.625h1.938v1.37c0.929,1.685,2.142,2.527,3.642,2.527c0.766,0,1.41-0.233,1.938-0.701
				c0.528-0.468,0.791-1.081,0.791-1.838c0-0.735-0.215-1.265-0.645-1.587c-0.432-0.323-1.244-0.645-2.441-0.964
				c-1.388-0.371-2.416-0.722-3.084-1.053c-0.668-0.33-1.2-0.802-1.598-1.415c-0.397-0.612-0.596-1.337-0.596-2.177
				c0-1.3,0.432-2.337,1.297-3.113c0.865-0.775,1.951-1.164,3.258-1.164c1.24,0,2.391,0.401,3.453,1.202V31.74h1.893v4.7h-1.893
				v-1.08c-0.795-1.196-1.889-1.794-3.285-1.794c-0.846,0-1.496,0.195-1.949,0.585c-0.453,0.391-0.68,0.856-0.68,1.398
				c0,0.416,0.116,0.781,0.346,1.098c0.23,0.315,0.523,0.548,0.88,0.695c0.356,0.149,1.059,0.355,2.106,0.623
				c1.365,0.355,2.357,0.688,2.973,0.996c0.615,0.308,1.146,0.822,1.592,1.542c0.445,0.722,0.67,1.549,0.67,2.485
				c0,1.321-0.467,2.414-1.4,3.274c-0.93,0.862-2.084,1.293-3.457,1.293c-1.41,0-2.682-0.509-3.809-1.525v1.28L84.326,47.312
				L84.326,47.312z"/>
		</g>
	</g>
	<g>
		<g enable-background="new    ">
			<path fill="#DDDDDD" d="M0,88.009v-2.521L7.078,75.6H2.931v2.717H0.398v-5.237h11.528v2.243l-7.29,10.165h4.917v-2.866h2.522
				v5.388H0L0,88.009z"/>
			<path fill="#DDDDDD" d="M13.836,88.009v-2.521h1.792V75.6h-1.792v-2.521h13.16v4.733h-2.855V75.6h-4.626v3.446h3.735v2.522
				h-3.735v3.917h4.626v-2.232h2.855v4.755L13.836,88.009L13.836,88.009z"/>
			<path fill="#DDDDDD" d="M28.359,88.009v-2.521h1.996V75.6h-1.996v-2.521h6.271l5.493,9.31v-6.788H38.18v-2.521h6.698v2.521
				h-2.093v12.516h-3.327L33.016,77.05v8.438h1.878v2.521H28.359z"/>
			<path fill="#DDDDDD" d="M61.214,82.996v-2.523h6.998c0,1.811-0.328,3.246-0.982,4.306c-0.655,1.059-1.606,1.893-2.855,2.501
				c-1.249,0.608-2.65,0.911-4.202,0.911c-2.698,0-4.768-0.723-6.209-2.168c-1.441-1.444-2.163-3.28-2.163-5.505
				c0-1.546,0.358-2.911,1.073-4.095c0.716-1.186,1.678-2.079,2.888-2.679c1.209-0.602,2.522-0.901,3.939-0.901
				c2.003,0,3.563,0.486,4.68,1.459v-1.223h2.533v5.302h-2.533c-0.265-0.895-0.791-1.601-1.578-2.114
				c-0.788-0.515-1.632-0.772-2.533-0.772c-1.188,0-2.201,0.42-3.038,1.261c-0.837,0.841-1.256,2.007-1.256,3.495
				c0,1.702,0.425,2.999,1.277,3.891c0.851,0.891,1.889,1.335,3.112,1.335c0.901,0,1.649-0.218,2.243-0.654s1.005-1.045,1.234-1.824
				L61.214,82.996L61.214,82.996z"/>
			<path fill="#DDDDDD" d="M84.602,85.485v2.522H77.26v-2.522h1.91l-0.707-2.564h-3.875l-0.794,2.564h1.997v2.522h-6.612v-2.522
				h1.846l2.909-9.886h-1.985v-2.522h9.746V75.6h-2.008l3.134,9.886H84.602z M77.852,80.731l-1.246-4.497l-1.34,4.497H77.852z"/>
			<path fill="#DDDDDD" d="M100.648,85.485v2.522h-4.547l-3.371-6.537h-1.709v4.015h1.869v2.521h-7.804v-2.521h2.05v-9.887h-2.05
				v-2.521h9.007c1.695,0,2.918,0.427,3.666,1.282c0.746,0.855,1.121,1.822,1.121,2.903c0,1.695-0.863,2.934-2.586,3.714
				l2.426,4.509H100.648L100.648,85.485z M91.02,79.09h1.332c1.646,0,2.469-0.587,2.469-1.761c0-0.58-0.188-1.013-0.562-1.3
				c-0.377-0.286-0.895-0.43-1.551-0.43h-1.686v3.49H91.02z"/>
			<path fill="#DDDDDD" d="M101.121,88.009v-2.521h2.264V75.6h-2.264v-2.521h7.074c1.488,0,2.688,0.09,3.596,0.272
				c0.908,0.184,1.777,0.588,2.607,1.214c0.832,0.625,1.496,1.465,1.998,2.518c0.5,1.051,0.75,2.218,0.75,3.499
				c0,1.037-0.174,2.027-0.523,2.967c-0.352,0.941-0.787,1.7-1.305,2.275c-0.52,0.577-1.139,1.034-1.863,1.374
				c-0.723,0.341-1.385,0.561-1.99,0.66c-0.604,0.101-1.539,0.15-2.807,0.15H101.121L101.121,88.009z M107.262,85.485h0.934
				c1.129,0,2.027-0.146,2.688-0.44c0.662-0.292,1.193-0.81,1.594-1.55c0.402-0.741,0.602-1.708,0.602-2.904
				c0-1.138-0.201-2.104-0.605-2.897s-0.953-1.341-1.643-1.642s-1.568-0.452-2.635-0.452h-0.934V85.485L107.262,85.485z"/>
			<path fill="#DDDDDD" d="M118.961,88.009v-2.521h1.793V75.6h-1.793v-2.521h13.158v4.733h-2.854V75.6h-4.627v3.446h3.734v2.522
				h-3.734v3.917h4.627v-2.232h2.854v4.755L118.961,88.009L118.961,88.009z"/>
			<path fill="#DDDDDD" d="M133.482,88.009v-2.521h1.996V75.6h-1.996v-2.521h6.271l5.494,9.31v-6.788h-1.945v-2.521H150v2.521
				h-2.092v12.516h-3.328l-6.439-11.066v8.438h1.877v2.521H133.482z"/>
		</g>
	</g>
</g>
</svg>
