<?xml version="1.0" encoding="utf-8"?>
<!-- Generator: Adobe Illustrator 16.0.0, SVG Export Plug-In . SVG Version: 6.00 Build 0)  -->
<!DOCTYPE svg PUBLIC "-//W3C//DTD SVG 1.1//EN" "http://www.w3.org/Graphics/SVG/1.1/DTD/svg11.dtd">
<svg version="1.1" id="Calque_1" xmlns="http://www.w3.org/2000/svg" xmlns:xlink="http://www.w3.org/1999/xlink" x="0px" y="0px"
	 width="150px" height="100px" viewBox="0 0 150 100" enable-background="new 0 0 150 100" xml:space="preserve">
<g>
	<path fill="#EEEEEE" d="M67.834,90.444c3.128,0.934,5.891,0.997,10.145,0.156c0.459,2.817,0.575,5.763,0.642,7.967
		c-2.384,1.411-7.883,2.354-11.453,0C67.475,94.793,67.751,92.79,67.834,90.444z"/>
</g>
<path fill="#CCCCCC" d="M81.777,0c0,0,3.057,7.397,1.931,18.333c-1.127,10.935,1.286,17.207,4.824,19.136
	c-0.806-6.915-1.448-11.58,3.054-17.529c0.966,4.665,1.932,11.74,7.078,17.529c5.145,5.789,9.808,16.564,9.808,19.619
	c0,3.057,0.805,13.188-6.593,20.264c-7.398,7.076-17.851,11.9-30.394,10.293c-12.543-1.61-23.156-7.399-27.338-16.566
	c-4.182-9.165-3.537-25.409,2.896-32.323c-0.483,5.469,2.09,10.454,4.823,10.292c2.733-0.161,5.629-4.503,5.79-8.845
	c0.161-4.343,2.894-13.831,7.397-18.01C69.555,18.01,80.652,10.132,81.777,0z"/>
<path fill="#EEEEEE" d="M46.72,54.087c0,0,2.734,9.111,8.042,8.648c5.306-0.465,5.787-8.802,5.466-13.125
	c-0.322-4.325,0.643-15.903,6.272-21.308c5.628-5.404,11.417-9.11,12.543-11.425c-0.159,3.705-0.32,14.513,2.734,18.528
	c3.055,4.016,9.809,12.352,9.489,17.6c2.09-2.778,4.019-8.165,2.41-13.192c3.217,3.775,14.795,18.443,9.167,29.095
	C97.216,79.564,88.07,86.355,76.472,86.357c-11.601,0.003-17.691-3.089-23.32-9.265C47.524,70.918,45.819,62.1,46.72,54.087z"/>
</svg>
