<?xml version="1.0" encoding="utf-8"?>
<!-- Generator: Adobe Illustrator 16.0.0, SVG Export Plug-In . SVG Version: 6.00 Build 0)  -->
<!DOCTYPE svg PUBLIC "-//W3C//DTD SVG 1.1//EN" "http://www.w3.org/Graphics/SVG/1.1/DTD/svg11.dtd">
<svg version="1.1" id="Calque_1" xmlns="http://www.w3.org/2000/svg" xmlns:xlink="http://www.w3.org/1999/xlink" x="0px" y="0px"
	 width="40px" height="40px" viewBox="0 0 40 40" enable-background="new 0 0 40 40" xml:space="preserve">
<rect x="5.495" y="6.221" transform="matrix(0.7071 0.7071 -0.7071 0.7071 20.0005 -8.2839)" fill="#395E96" width="29.009" height="27.559"/>
<path fill="#FFFFFF" d="M19,32V21.678h-3L16,18h3c0,0,0-3,0-3c-0.001-2.495,1.59-5,5.254-5c1.484,0,2.58,0.144,2.58,0.144
	l-0.086,3.471c0,0-0.994,0.029-2.215,0.029c-1.32,0-1.533,0.617-1.533,1.642c0,0.81,0-1.727,0,2.714h3.547l-0.174,3.678H23V32H19z"
	/>
</svg>
