<?xml version="1.0" encoding="utf-8"?>
<!-- Generator: Adobe Illustrator 16.0.0, SVG Export Plug-In . SVG Version: 6.00 Build 0)  -->
<!DOCTYPE svg PUBLIC "-//W3C//DTD SVG 1.1//EN" "http://www.w3.org/Graphics/SVG/1.1/DTD/svg11.dtd">
<svg version="1.1" id="Calque_1" xmlns="http://www.w3.org/2000/svg" xmlns:xlink="http://www.w3.org/1999/xlink" x="0px" y="0px"
	 width="45px" height="60px" viewBox="0 0 45 60" enable-background="new 0 0 45 60" xml:space="preserve">
<g>
	<path fill="#FFFFFF" d="M24.873,19.92c0,0.435,0.06,0.857,0.168,1.259l-6.912,4.905c-0.851-0.631-1.913-1.004-3.065-1.004
		C12.267,25.08,10,27.283,10,30c0,2.717,2.267,4.92,5.063,4.92c1.152,0,2.215-0.373,3.065-1.004l6.912,4.904
		c-0.108,0.401-0.168,0.824-0.168,1.26c0,2.717,2.268,4.92,5.063,4.92S35,42.797,35,40.08c0-2.718-2.268-4.92-5.063-4.92
		c-0.942,0-1.823,0.25-2.578,0.686l-7.279-5.167c0.031-0.221,0.048-0.449,0.048-0.679s-0.017-0.458-0.048-0.679l7.279-5.167
		c0.755,0.435,1.636,0.687,2.578,0.687c2.796,0,5.063-2.203,5.063-4.92c0-2.717-2.268-4.92-5.063-4.92S24.873,17.203,24.873,19.92z"
		/>
</g>
</svg>
