<?xml version="1.0" encoding="utf-8"?>
<!-- Generator: Adobe Illustrator 16.0.0, SVG Export Plug-In . SVG Version: 6.00 Build 0)  -->
<!DOCTYPE svg PUBLIC "-//W3C//DTD SVG 1.1//EN" "http://www.w3.org/Graphics/SVG/1.1/DTD/svg11.dtd">
<svg version="1.1" id="Calque_1" xmlns="http://www.w3.org/2000/svg" xmlns:xlink="http://www.w3.org/1999/xlink" x="0px" y="0px"
	 width="40px" height="40px" viewBox="0 0 40 40" enable-background="new 0 0 40 40" xml:space="preserve">
<rect x="5.495" y="6.221" transform="matrix(0.7071 0.7071 -0.7071 0.7071 20.0005 -8.2839)" fill="#00A7E2" width="29.009" height="27.559"/>
<path fill="#FFFFFF" d="M29.229,14.275c-0.678,0.302-1.408,0.505-2.174,0.597c0.781-0.469,1.381-1.211,1.664-2.096
	c-0.732,0.435-1.541,0.75-2.404,0.919c-0.691-0.736-1.676-1.196-2.764-1.196c-2.092,0-3.788,1.695-3.788,3.786
	c0,0.298,0.033,0.586,0.099,0.863c-3.147-0.157-5.938-1.665-7.806-3.957c-0.326,0.56-0.513,1.21-0.513,1.904
	c0,1.313,0.669,2.474,1.684,3.152c-0.619-0.02-1.204-0.19-1.714-0.474c-0.001,0.016-0.001,0.031-0.001,0.047
	c0,1.836,1.306,3.366,3.038,3.714c-0.318,0.087-0.653,0.133-0.998,0.133c-0.244,0-0.481-0.024-0.712-0.068
	c0.481,1.504,1.88,2.6,3.537,2.63c-1.297,1.017-2.929,1.621-4.703,1.621c-0.306,0-0.606-0.018-0.903-0.053
	c1.676,1.074,3.666,1.701,5.805,1.701c6.965,0,10.774-5.771,10.774-10.774c0-0.164-0.004-0.327-0.01-0.489
	C28.08,15.702,28.721,15.036,29.229,14.275z"/>
</svg>
