<?xml version="1.0" encoding="utf-8"?>
<!-- Generator: Adobe Illustrator 16.0.0, SVG Export Plug-In . SVG Version: 6.00 Build 0)  -->
<!DOCTYPE svg PUBLIC "-//W3C//DTD SVG 1.1//EN" "http://www.w3.org/Graphics/SVG/1.1/DTD/svg11.dtd">
<svg version="1.1" id="Calque_1" xmlns="http://www.w3.org/2000/svg" xmlns:xlink="http://www.w3.org/1999/xlink" x="0px" y="0px"
	 width="40px" height="40px" viewBox="0 0 40 40" enable-background="new 0 0 40 40" xml:space="preserve">
<rect x="5.495" y="6.221" transform="matrix(0.7071 0.7071 -0.7071 0.7071 20.0005 -8.2839)" fill="#007AB7" width="29.009" height="27.559"/>
<g>
	<path fill="#FFFFFF" d="M12.28,17.632h3.526v11.327H12.28V17.632z M14.044,12c1.128,0,2.043,0.915,2.043,2.041
		c0,1.127-0.915,2.042-2.043,2.042c-1.132,0-2.044-0.915-2.044-2.042C12,12.915,12.912,12,14.044,12"/>
	<path fill="#FFFFFF" d="M18.017,17.632h3.377v1.548h0.049c0.47-0.891,1.62-1.83,3.334-1.83c3.564,0,4.224,2.346,4.224,5.396v6.213
		h-3.52v-5.508c0-1.313-0.026-3.004-1.832-3.004c-1.833,0-2.112,1.431-2.112,2.908v5.604h-3.52V17.632z"/>
</g>
</svg>
